<svg width="48" height="48" viewBox="0 0 48 48" fill="none" xmlns="http://www.w3.org/2000/svg">
<path d="M25.4706 7.03309C22.3464 3.90889 17.281 3.90889 14.1569 7.03309L2.84315 18.3468C-0.28105 21.471 -0.28105 26.5363 2.84315 29.6605L14.1569 40.9742C17.281 44.0984 22.3464 44.0984 25.4706 40.9742L30.8688 35.5759C26.3749 33.8422 23.1868 29.4815 23.1868 24.3762C23.1868 19.0675 26.634 14.5639 31.4122 12.9819C31.3187 12.8836 31.2238 12.7863 31.1274 12.6899L25.4706 7.03309Z" fill="white"/>
<path d="M30.8691 35.5798C32.2089 36.0966 33.6646 36.3799 35.1865 36.3799C41.8139 36.3799 47.1865 31.0073 47.1865 24.3799C47.1865 17.7525 41.8139 12.3799 35.1865 12.3799C33.868 12.3799 32.5992 12.5925 31.4125 12.9854C37.3748 19.2535 37.28 29.169 31.1279 35.321L30.8691 35.5798Z" fill="white"/>
</svg>
